<?xml version="1.0" encoding="UTF-8" standalone="no"?>
<!-- Created with Inkscape (http://www.inkscape.org/) -->

<svg
   width="1024"
   height="1024"
   viewBox="0 0 270.93334 270.93333"
   version="1.1"
   id="svg1"
   xml:space="preserve"
   inkscape:version="1.3.2 (091e20ef0f, 2023-11-25)"
   sodipodi:docname="icon.svg"
   xmlns:inkscape="http://www.inkscape.org/namespaces/inkscape"
   xmlns:sodipodi="http://sodipodi.sourceforge.net/DTD/sodipodi-0.dtd"
   xmlns="http://www.w3.org/2000/svg"
   xmlns:svg="http://www.w3.org/2000/svg"><sodipodi:namedview
     id="namedview1"
     pagecolor="#ffffff"
     bordercolor="#000000"
     borderopacity="0.25"
     inkscape:showpageshadow="2"
     inkscape:pageopacity="0.0"
     inkscape:pagecheckerboard="0"
     inkscape:deskcolor="#d1d1d1"
     inkscape:document-units="mm"
     inkscape:zoom="0.35355339"
     inkscape:cx="596.79812"
     inkscape:cy="458.20519"
     inkscape:window-width="1920"
     inkscape:window-height="1012"
     inkscape:window-x="0"
     inkscape:window-y="32"
     inkscape:window-maximized="1"
     inkscape:current-layer="layer3" /><defs
     id="defs1" /><g
     inkscape:groupmode="layer"
     id="layer3"
     inkscape:label="Background"><rect
       style="opacity:1;fill:#f59147;fill-opacity:1;stroke:#000000;stroke-width:1;stroke-linecap:round;stroke-linejoin:round;stroke-dasharray:none;stroke-opacity:1"
       id="rect26"
       width="347.98236"
       height="347.98236"
       x="-38.524513"
       y="-38.524513"
       inkscape:label="Orange" /></g><g
     inkscape:groupmode="layer"
     id="layer2"
     inkscape:label="Dontavius"
     style="display:inline"><g
       id="g3"
       inkscape:label="Torso"
       style="opacity:1"><path
         style="opacity:1;fill:#ffffff;stroke:#000000;stroke-width:3;stroke-linecap:round;stroke-linejoin:round;stroke-dasharray:none;stroke-opacity:1"
         d="m 59.237654,276.04246 c 17.326849,-26.01503 32.314212,-40.23041 44.052876,-49.80748 11.73866,-9.57707 19.75827,-11.07055 31.08651,-11.93515 11.32824,-0.86461 34.70033,0.26522 37.82055,16.79245 3.12022,16.52723 8.41586,40.69638 -14.64574,53.12412 -23.0616,12.42775 -115.641045,17.84109 -98.314196,-8.17394 z"
         id="path1"
         sodipodi:nodetypes="zzzzzz"
         inkscape:label="Torso" /><g
         id="g4"
         inkscape:label="Label"><path
           style="opacity:1;fill:#ffffff;stroke:#000000;stroke-width:2;stroke-linecap:round;stroke-linejoin:round;stroke-dasharray:none;stroke-opacity:1"
           d="m 113.94017,230.98268 23.17406,7.83844 -11.52774,9.68399 -21.32671,-10.36613 z"
           id="path2"
           sodipodi:nodetypes="ccccc"
           inkscape:label="Label" /><path
           style="opacity:1;fill:#ffffff;stroke:#000000;stroke-width:2;stroke-linecap:round;stroke-linejoin:round;stroke-dasharray:none;stroke-opacity:1"
           d="m 109.82407,237.42757 c 0.4849,0 0.9698,0 1.45469,0 0.10914,0 0.22086,0.0236 0.32741,0 0.0845,-0.0187 0.15821,-0.072 0.24167,-0.095 0.29633,-0.0815 0.62399,-0.10105 0.91457,-0.20282 0.49984,-0.17506 1.14669,-0.58753 1.48049,-1.00046 0.12205,-0.15098 0.21067,-0.32615 0.31505,-0.48984 0.22297,-0.34965 0.38133,-1.13952 -0.14108,-1.3116 -0.24466,-0.0806 -0.26141,0.63892 -0.23328,0.73839 0.0319,0.11284 0.10834,0.20815 0.16799,0.30912 0.22457,0.38019 0.36831,0.50683 0.71863,0.74947 0.65802,0.45578 1.65881,0.35797 2.42006,0.40778 0.16002,0.0105 0.31759,0.0478 0.47768,0.0572 0.24319,0.0143 0.48722,0 0.73084,0 0.0624,0 0.14105,-0.0421 0.18709,0 0.0105,0.01 -0.007,0.0302 0,0.0427 0.21038,0.38444 0.11933,1.06584 -0.0356,1.4462 -0.23912,0.587 -0.71298,1.111 -1.24461,1.4448 -0.2387,0.14987 -0.51999,0.22099 -0.79054,0.29998 -0.49853,0.14552 -0.94266,0.19971 -1.45829,0.15216 -0.57578,-0.0531 -0.90625,-0.168 -1.23503,-0.61287 -0.12184,-0.16488 -0.26039,-0.35799 -0.33706,-0.54911 -0.0917,-0.2285 0.2823,-0.22232 0.4006,-0.23471 0.4783,-0.0501 1.01287,0.18151 1.43527,0.36821 0.17158,0.0758 0.32825,0.18437 0.50335,0.25165 0.21356,0.0821 0.44051,0.1242 0.65816,0.19469 0.53594,0.17358 1.17429,0.43673 1.72967,0.54172 0.75227,0.14222 1.68191,0.17891 2.41167,-0.10258 0.11242,-0.0434 1.57721,-0.70167 1.29324,-1.04813 -0.0627,-0.0765 -0.19194,0.0521 -0.2809,0.0952 -0.23346,0.11322 -1.05902,0.33871 -0.9113,0.73172 0.0206,0.0548 0.0785,0.0884 0.10548,0.14032 0.0245,0.0471 0.0146,0.11 0.0468,0.15222 0.26361,0.34591 1.39634,0.41488 1.80343,0.4609 0.0775,0.009 0.17636,-0.0526 0.23386,0 0.0211,0.0193 0.0204,0.0657 0,0.0856 -0.19095,0.18637 -0.54824,0.43799 -0.54824,0.7519 0,0.0349 0.0298,0.0631 0.0468,0.0935 0.31302,0.56125 1.38819,0.55781 1.92751,0.61915 0.39901,0.0454 0.82214,0.16261 1.22352,0.16261"
           id="path3"
           inkscape:label="Text" /></g></g><g
       id="g10"
       inkscape:label="Head"
       style="opacity:1"><path
         style="display:inline;opacity:1;fill:#ffe4b7;fill-opacity:1;stroke:#000000;stroke-width:3;stroke-linecap:round;stroke-linejoin:round;stroke-dasharray:none;stroke-opacity:1"
         d="m 172.82229,121.79044 c -10.54196,-0.83757 -21.78954,3.35607 -24.8165,8.24358 -11.11847,13.76392 -12.15157,28.45713 -12.06538,39.19265 0.0862,10.73552 0.73717,19.32939 3.54491,25.72448 2.80774,6.39508 9.90058,11.35885 17.49946,13.39685 7.59888,2.038 17.34356,2.26646 29.42094,-0.89537 12.07738,-3.16183 26.495,-11.80763 33.69514,-22.21319 7.20014,-10.40556 10.19327,-22.69804 10.39985,-28.6904 0.20658,-5.99236 -2.70908,-14.3949 -13.75475,-20.80801 -11.04567,-6.4131 -33.38172,-13.11303 -43.92367,-13.95059 z"
         id="path4"
         sodipodi:nodetypes="zzzzzzzzzz"
         inkscape:label="Head" /><g
         id="g7"
         inkscape:label="Eyes"
         style="opacity:1"><g
           id="g8"
           inkscape:label="Left Eye"><path
             style="opacity:1;fill:#ffffff;fill-opacity:1;stroke:#000000;stroke-width:3;stroke-linecap:round;stroke-linejoin:round;stroke-dasharray:none;stroke-opacity:1"
             d="m 197.31534,151.41865 c -5.79303,0.006 -11.36864,8.31165 -14.04638,11.93469 -2.07366,2.80571 -6.73096,13.35439 -1.07507,18.54633 4.39725,4.03655 17.80376,4.70994 22.94609,1.47833 6.52241,-4.0989 6.58011,-17.50044 4.63945,-21.41454 -1.96221,-3.95756 -6.67106,-10.55096 -12.46409,-10.54481 z"
             id="path6"
             sodipodi:nodetypes="zzzzzz"
             inkscape:label="Eyeball" /><ellipse
             style="display:inline;opacity:1;fill:#000000;fill-opacity:1;stroke:none;stroke-width:2.96707;stroke-linecap:round;stroke-linejoin:round;stroke-dasharray:none;stroke-opacity:1"
             id="path7"
             cx="191.84805"
             cy="166.711"
             rx="7.708786"
             ry="7.7911191"
             inkscape:label="Pupil" /></g><g
           id="g9"
           inkscape:label="Right Eye"><path
             style="opacity:1;fill:#ffffff;fill-opacity:1;stroke:#000000;stroke-width:3;stroke-linecap:round;stroke-linejoin:round;stroke-dasharray:none;stroke-opacity:1"
             d="m 181.30952,145.78107 c -2.7487,-4.47371 -12.90265,-9.67342 -18.87285,-8.14516 -5.9702,1.52826 -8.04339,7.36546 -10.09584,12.9504 -2.05245,5.58494 -3.71669,14.56613 -0.8132,19.26295 2.90349,4.69682 6.31461,7.0456 12.63993,5.66351 6.32532,-1.38209 14.18959,-13.2638 16.4694,-18.80389 2.27981,-5.54009 3.42126,-6.4541 0.67256,-10.92781 z"
             id="path5"
             sodipodi:nodetypes="zzzzzzz"
             inkscape:label="Eyeball" /><ellipse
             style="display:inline;opacity:1;fill:#000000;fill-opacity:1;stroke:none;stroke-width:2.96707;stroke-linecap:round;stroke-linejoin:round;stroke-dasharray:none;stroke-opacity:1"
             id="path7-6"
             cx="161.33817"
             cy="152.20407"
             rx="7.708786"
             ry="7.7911191"
             inkscape:label="Pupil" /></g></g></g><g
       id="g11"
       inkscape:label="Hat"
       style="opacity:1"><path
         style="opacity:1;fill:#ffffff;fill-opacity:1;stroke:#000000;stroke-width:3;stroke-linecap:round;stroke-linejoin:round;stroke-dasharray:none;stroke-opacity:1"
         d="m 150.90948,105.86419 c -17.8205,0.93768 -0.62685,17.12266 9.03786,20.80853 9.66471,3.68587 23.869,3.38272 35.36837,8.23028 11.49937,4.84756 23.25484,17.7915 32.48151,20.78556 9.22667,2.99406 15.37325,6.35851 19.60565,1.14437 -13.36461,-37.92541 96.84476,-120.873526 138.90856,-164.4723 23.60398,-24.583542 -69.00433,-66.263948 -119.6383,-49.50344 0,0 -97.94316,162.06931 -115.76365,163.007 z"
         id="path10"
         sodipodi:nodetypes="zzzzzzcz"
         inkscape:label="Hat" /><g
         id="g12"
         inkscape:label="Folds"><path
           style="opacity:1;fill:none;fill-opacity:1;stroke:#000000;stroke-width:3;stroke-linecap:round;stroke-linejoin:round;stroke-dasharray:none;stroke-opacity:1"
           d="M 248.72149,13.509947 C 237.23768,44.329041 219.01583,74.591611 198.48801,100.85055"
           id="path11"
           sodipodi:nodetypes="cc" /><path
           style="display:inline;opacity:1;fill:none;fill-opacity:1;stroke:#000000;stroke-width:3;stroke-linecap:round;stroke-linejoin:round;stroke-dasharray:none;stroke-opacity:1"
           d="M 263.69746,27.969145 C 247.63839,56.48487 235.05002,71.882181 219.89432,101.3596"
           id="path11-2"
           sodipodi:nodetypes="cc" /><path
           style="display:inline;opacity:1;fill:none;fill-opacity:1;stroke:#000000;stroke-width:3;stroke-linecap:round;stroke-linejoin:round;stroke-dasharray:none;stroke-opacity:1"
           d="m 302.36249,33.935533 c -17.18324,18.552208 -40.10765,36.166898 -55.4402,63.433876"
           id="path11-3"
           sodipodi:nodetypes="cc" /></g></g><g
       id="g13"
       inkscape:label="Eyebrows"
       style="display:inline;opacity:1"><path
         style="opacity:1;fill:none;fill-opacity:1;stroke:#000000;stroke-width:3;stroke-linecap:round;stroke-linejoin:round;stroke-dasharray:none;stroke-opacity:1"
         d="m 218.77999,119.91522 c 0,0 8.96058,1.82545 11.76431,5.04109 2.87106,3.29286 3.47297,12.63771 3.47297,12.63771"
         id="path13"
         sodipodi:nodetypes="cac"
         inkscape:label="Left Eyebrow" /><path
         style="display:inline;opacity:1;fill:none;fill-opacity:1;stroke:#000000;stroke-width:3;stroke-linecap:round;stroke-linejoin:round;stroke-dasharray:none;stroke-opacity:1"
         d="m 171.44286,113.43651 c 0,0 9.62817,-3.51652 14.42324,-2.58644 3.68903,0.71554 9.54773,5.99406 9.54773,5.99406"
         id="path12"
         sodipodi:nodetypes="cac"
         inkscape:label="Right Eyebrow" /></g><g
       id="g15"
       inkscape:label="Hands"><path
         style="opacity:1;fill:#626262;fill-opacity:1;stroke:#000000;stroke-width:3;stroke-linecap:round;stroke-linejoin:round;stroke-dasharray:none;stroke-opacity:1"
         d="m 95.435324,172.48556 c -13.74559,-3.25355 -30.700642,9.14904 -36.09281,22.20474 -3.34119,8.0898 -0.722069,20.09402 6.137439,25.53053 6.737478,5.33979 18.022103,3.82406 25.790363,0.14152 9.172574,-4.34825 18.511074,-13.54914 19.147824,-23.68018 0.59507,-9.46792 -5.75129,-22.01153 -14.982816,-24.19661 z"
         id="path14"
         sodipodi:nodetypes="aaaaaa"
         inkscape:label="Left Hand" /><path
         style="display:inline;opacity:1;fill:#626262;fill-opacity:1;stroke:#000000;stroke-width:3;stroke-linecap:round;stroke-linejoin:round;stroke-dasharray:none;stroke-opacity:1"
         d="m 41.073697,86.401552 c 6.946216,-1.149919 14.78985,3.855435 18.788903,9.650243 5.034441,7.295135 4.140421,17.639385 2.966622,26.424985 -0.779083,5.83125 -1.884766,12.76417 -6.504373,16.40692 -6.450067,5.08615 -17.174782,7.40737 -24.394187,3.48915 -6.261269,-3.39821 -7.509607,-12.42036 -8.991478,-19.38853 -1.254958,-5.90116 -2.028892,-12.52106 0.274176,-18.09731 3.270742,-7.919203 9.407331,-17.086096 17.860337,-18.485458 z"
         id="path15"
         sodipodi:nodetypes="aaaaaaaa"
         inkscape:label="Right Hand" /></g><g
       id="g24"
       inkscape:label="Pizza"><path
         style="opacity:1;fill:#d9a066;fill-opacity:1;stroke:#000000;stroke-width:3;stroke-linecap:round;stroke-linejoin:round;stroke-dasharray:none;stroke-opacity:1"
         d="m 32.835135,74.402317 c 1.072281,13.536438 26.150254,11.569668 33.737198,22.83125 5.192338,7.707183 4.321916,18.094023 5.807892,27.267513 1.399064,8.63694 -1.256167,18.39538 2.915997,26.0861 3.442757,6.34618 11.350442,8.94115 16.732504,13.75363 4.515118,4.03728 6.984977,12.28641 13.030054,12.66457 7.74729,0.48465 15.06282,-7.10915 18.59173,-14.02307 2.68851,-5.26739 2.02356,-12.06833 0.34247,-17.7382 -1.84296,-6.21581 -8.98181,-9.91026 -10.91439,-16.09879 -3.82192,-12.23861 4.82267,-26.73936 -0.36901,-38.462723 C 106.22467,76.038984 92.391843,63.801303 77.444054,58.052125 68.880024,54.758251 58.431266,54.963511 49.919228,58.389501 42.678601,61.303764 32.218789,66.621589 32.835135,74.402317 Z"
         id="path16"
         sodipodi:nodetypes="aaaaaaaaaaaaa"
         inkscape:label="Dough" /><path
         style="opacity:1;fill:#e6dc98;fill-opacity:1;stroke:#000000;stroke-width:3;stroke-linecap:round;stroke-linejoin:round;stroke-dasharray:none;stroke-opacity:1"
         d="m 49.584906,71.759907 c -1.09322,6.802265 12.430969,6.69166 16.836495,11.988572 6.72466,8.085285 11.00206,18.343771 13.310584,28.603571 1.963883,8.72811 -3.411875,18.64932 0.190516,26.83831 5.367421,12.20127 16.00286,28.34576 29.285749,27.2299 5.01795,-0.42154 8.63031,-6.98422 9.19215,-11.9884 1.07974,-9.61701 -10.05298,-16.92814 -12.11661,-26.38299 -2.64614,-12.12375 5.55861,-26.11909 0.0277,-37.22748 C 99.905328,77.955129 86.042565,67.334615 71.884289,64.860185 64.219657,63.520644 50.819549,64.07768 49.584906,71.759907 Z"
         id="path17"
         sodipodi:nodetypes="aaaaaaaaaa"
         inkscape:label="Cheese" /><g
         id="g26"
         inkscape:label="Aroma"
         style="display:inline"><path
           style="opacity:1;fill:none;fill-opacity:1;stroke:#000000;stroke-width:1;stroke-linecap:round;stroke-linejoin:round;stroke-dasharray:none;stroke-opacity:1"
           d="m 79.694507,47.184312 c 0,0 3.689762,-12.020642 8.091388,-8.480559 4.866896,3.914285 7.133949,-3.103344 7.133949,-3.103344"
           id="path24"
           sodipodi:nodetypes="csc" /><path
           style="display:inline;opacity:1;fill:none;fill-opacity:1;stroke:#000000;stroke-width:1;stroke-linecap:round;stroke-linejoin:round;stroke-dasharray:none;stroke-opacity:1"
           d="m 105.89242,68.622885 c 0,0 3.97994,-6.981259 6.46476,-5.257546 2.48483,1.723714 5.88151,-6.459132 5.88151,-6.459132"
           id="path25"
           sodipodi:nodetypes="czc" /><path
           style="display:inline;opacity:1;fill:none;fill-opacity:1;stroke:#000000;stroke-width:1;stroke-linecap:round;stroke-linejoin:round;stroke-dasharray:none;stroke-opacity:1"
           d="m 133.14716,83.095533 c 0,0 -4.35293,5.985234 -6.83614,4.772163 -3.40281,-1.662307 -8.61521,3.434717 -8.61521,3.434717"
           id="path26"
           sodipodi:nodetypes="csc" /></g><g
         id="g23"
         inkscape:label="Pepperonis"
         style="display:inline"><path
           style="opacity:1;fill:#ea0202;fill-opacity:1;stroke:#000000;stroke-width:1;stroke-linecap:round;stroke-linejoin:round;stroke-dasharray:none;stroke-opacity:1"
           d="m 94.561497,47.519521 c -3.121753,2.621426 -0.952942,10.265012 2.776916,11.909813 3.800397,1.675905 11.092957,-1.947127 10.868357,-6.09456 -0.26736,-4.937018 -9.85893,-8.994755 -13.645273,-5.815253 z"
           id="path23"
           sodipodi:nodetypes="aaaa" /><path
           style="opacity:1;fill:#ea0202;fill-opacity:1;stroke:#000000;stroke-width:1;stroke-linecap:round;stroke-linejoin:round;stroke-dasharray:none;stroke-opacity:1"
           d="m 72.542182,74.203834 c 1.98658,-2.030576 6.681447,-2.779575 8.501163,-0.598207 1.828247,2.191594 -0.07126,6.310668 -2.122776,8.294815 -1.674292,1.619308 -5.043629,3.007839 -6.823644,1.505521 -2.346833,-1.980707 -1.702332,-7.006978 0.445257,-9.202129 z"
           id="path18"
           sodipodi:nodetypes="aaaaa" /><path
           style="opacity:1;fill:#ea0202;fill-opacity:1;stroke:#000000;stroke-width:1;stroke-linecap:round;stroke-linejoin:round;stroke-dasharray:none;stroke-opacity:1"
           d="m 93.053105,91.494842 c 2.197663,-2.494098 7.562735,-2.433277 9.971555,-0.142465 2.1377,2.032972 2.25248,6.617301 0.31787,8.844413 -2.02279,2.32862 -6.799343,2.89731 -9.20312,0.96443 -2.526833,-2.031829 -3.2299,-7.23364 -1.086305,-9.666378 z"
           id="path19"
           sodipodi:nodetypes="aaaaa" /><path
           style="opacity:1;fill:#ea0202;fill-opacity:1;stroke:#000000;stroke-width:1;stroke-linecap:round;stroke-linejoin:round;stroke-dasharray:none;stroke-opacity:1"
           d="m 91.801742,130.65191 c -4.449913,2.72115 -4.871549,12.06632 -1.046842,15.61287 1.375219,1.2752 4.045425,0.29461 5.569463,-0.79841 3.208637,-2.30118 6.698627,-6.85531 5.352527,-10.56729 -1.22158,-3.36859 -6.818166,-6.11654 -9.875148,-4.24717 z"
           id="path20"
           sodipodi:nodetypes="aaaaa" /><path
           style="opacity:1;fill:#ea0202;fill-opacity:1;stroke:#000000;stroke-width:1;stroke-linecap:round;stroke-linejoin:round;stroke-dasharray:none;stroke-opacity:1"
           d="m 121.7731,93.185077 c 3.08281,-3.112674 10.4303,-4.28512 13.11686,-0.824651 2.66982,3.438907 -0.40716,10.003334 -4.02496,12.425214 -2.68636,1.79835 -7.53739,1.6777 -9.66896,-0.75274 -2.38761,-2.72238 -1.97104,-8.275038 0.57706,-10.847823 z"
           id="path21"
           sodipodi:nodetypes="aaaaa" /><path
           style="opacity:1;fill:#ea0202;fill-opacity:1;stroke:#000000;stroke-width:1;stroke-linecap:round;stroke-linejoin:round;stroke-dasharray:none;stroke-opacity:1"
           d="m 117.49618,69.534523 c -2.76835,0.639858 -5.59747,4.318863 -4.798,7.045402 0.76819,2.61985 4.90186,3.926 7.53597,3.208224 2.44438,-0.666076 5.03915,-3.634412 4.51608,-6.113333 -0.57481,-2.724163 -4.54142,-4.767273 -7.25405,-4.140293 z"
           id="path22"
           sodipodi:nodetypes="aaaaa" /></g></g></g></svg>
