<?xml version="1.0" encoding="UTF-8" standalone="no"?>
<svg
   width="336.21463"
   height="316.96518"
   version="1.1"
   viewBox="0 0 315.20122 297.13572"
   xml:space="preserve"
   id="svg26"
   sodipodi:docname="Godot Game engine logo.svg"
   inkscape:version="1.3.2 (091e20ef0f, 2023-11-25)"
   xmlns:inkscape="http://www.inkscape.org/namespaces/inkscape"
   xmlns:sodipodi="http://sodipodi.sourceforge.net/DTD/sodipodi-0.dtd"
   xmlns="http://www.w3.org/2000/svg"
   xmlns:svg="http://www.w3.org/2000/svg"
   xmlns:rdf="http://www.w3.org/1999/02/22-rdf-syntax-ns#"
   xmlns:cc="http://creativecommons.org/ns#"
   xmlns:dc="http://purl.org/dc/elements/1.1/"><sodipodi:namedview
     id="namedview26"
     pagecolor="#000000"
     bordercolor="#000000"
     borderopacity="0.25"
     inkscape:showpageshadow="2"
     inkscape:pageopacity="0.0"
     inkscape:pagecheckerboard="0"
     inkscape:deskcolor="#d1d1d1"
     showgrid="false"
     inkscape:zoom="0.4685273"
     inkscape:cx="316.95058"
     inkscape:cy="133.39671"
     inkscape:window-width="1920"
     inkscape:window-height="1011"
     inkscape:window-x="0"
     inkscape:window-y="0"
     inkscape:window-maximized="1"
     inkscape:current-layer="svg26" /><title
     id="title1">Godot Game engine logo</title><desc
     id="desc1">A free and open source cross-platform game engine</desc><metadata
     id="metadata1"><rdf:RDF><cc:Work
         rdf:about=""><dc:format>image/svg+xml</dc:format><dc:type
           rdf:resource="http://purl.org/dc/dcmitype/StillImage" /><dc:title>Godot Game engine logo</dc:title></cc:Work></rdf:RDF></metadata><defs
     id="defs1"><clipPath
       clipPathUnits="userSpaceOnUse"
       id="clipPath26"><g
         id="g27"
         transform="matrix(0.70733866,0,0,-0.70733866,-178.0725,141.90981)"><path
           d="M -94.25,-146.625 H 958.125 V 597.5 H -94.25 Z"
           id="path26"
           style="stroke-width:1.25" /></g></clipPath><clipPath
       clipPathUnits="userSpaceOnUse"
       id="clipPath27"><g
         id="g28"
         transform="matrix(0.70733866,0,0,-0.70733866,-172.76746,140.67197)"><path
           d="M -94.25,-146.625 H 958.125 V 597.5 H -94.25 Z"
           id="path27"
           style="stroke-width:1.25" /></g></clipPath><clipPath
       clipPathUnits="userSpaceOnUse"
       id="clipPath28"><g
         id="g29"
         transform="matrix(0.70733866,0,0,-0.70733866,-143.32449,164.45623)"><path
           d="M -94.25,-146.625 H 958.125 V 597.5 H -94.25 Z"
           id="path28"
           style="stroke-width:1.25" /></g></clipPath><clipPath
       clipPathUnits="userSpaceOnUse"
       id="clipPath29"><g
         id="g30"
         transform="matrix(0.70733866,0,0,-0.70733866,-108.57648,141.90981)"><path
           d="M -94.25,-146.625 H 958.125 V 597.5 H -94.25 Z"
           id="path29"
           style="stroke-width:1.25" /></g></clipPath><clipPath
       clipPathUnits="userSpaceOnUse"
       id="clipPath30"><g
         id="g31"
         transform="matrix(0.70733866,0,0,-0.70733866,-113.7931,140.67197)"><path
           d="M -94.25,-146.625 H 958.125 V 597.5 H -94.25 Z"
           id="path30"
           style="stroke-width:1.25" /></g></clipPath><clipPath
       clipPathUnits="userSpaceOnUse"
       id="clipPath31"><g
         id="g32"
         transform="matrix(0.70733866,0,0,-0.70733866,-208.6649,186.64898)"><path
           d="M -94.25,-146.625 H 958.125 V 597.5 H -94.25 Z"
           id="path31"
           style="stroke-width:1.25" /></g></clipPath><clipPath
       clipPathUnits="userSpaceOnUse"
       id="clipPath32"><g
         id="g33"
         transform="matrix(0.70733866,0,0,-0.70733866,-45.446508,116.71088)"><path
           d="M -94.25,-146.625 H 958.125 V 597.5 H -94.25 Z"
           id="path32"
           style="stroke-width:1.25" /></g></clipPath><clipPath
       clipPathUnits="userSpaceOnUse"
       id="clipPath33"><g
         id="g34"
         transform="matrix(0.70733866,0,0,-0.70733866,-241.11406,175.68523)"><path
           d="M -94.25,-146.625 H 958.125 V 597.5 H -94.25 Z"
           id="path33"
           style="stroke-width:1.25" /></g></clipPath><clipPath
       clipPathUnits="userSpaceOnUse"
       id="clipPath34"><g
         id="g35"
         transform="matrix(0.70733866,0,0,-0.70733866,-525.46419,195.57913)"><path
           d="M -94.25,-146.625 H 958.125 V 597.5 H -94.25 Z"
           id="path34"
           style="stroke-width:1.25" /></g></clipPath><clipPath
       clipPathUnits="userSpaceOnUse"
       id="clipPath35"><g
         id="g36"
         transform="matrix(0.70733866,0,0,-0.70733866,-497.61273,193.54553)"><path
           d="M -94.25,-146.625 H 958.125 V 597.5 H -94.25 Z"
           id="path35"
           style="stroke-width:1.25" /></g></clipPath><clipPath
       clipPathUnits="userSpaceOnUse"
       id="clipPath36"><g
         id="g37"><path
           d="M -94.25,-146.625 H 958.125 V 597.5 H -94.25 Z"
           id="path36"
           style="stroke-width:1.25" /></g></clipPath><clipPath
       clipPathUnits="userSpaceOnUse"
       id="clipPath37"><g
         id="g38"
         transform="matrix(0.70733866,0,0,-0.70733866,-442.52874,193.54553)"><path
           d="M -94.25,-146.625 H 958.125 V 597.5 H -94.25 Z"
           id="path37"
           style="stroke-width:1.25" /></g></clipPath><clipPath
       clipPathUnits="userSpaceOnUse"
       id="clipPath38"><g
         id="g39"
         transform="matrix(0.70733866,0,0,-0.70733866,-395.57913,195.57913)"><path
           d="M -94.25,-146.625 H 958.125 V 597.5 H -94.25 Z"
           id="path38"
           style="stroke-width:1.25" /></g></clipPath><clipPath
       clipPathUnits="userSpaceOnUse"
       id="clipPath39"><g
         id="g40"
         transform="matrix(0.70733866,0,0,-0.70733866,-336.51636,216.79929)"><path
           d="M -94.25,-146.625 H 958.125 V 597.5 H -94.25 Z"
           id="path39"
           style="stroke-width:1.25" /></g></clipPath><clipPath
       clipPathUnits="userSpaceOnUse"
       id="clipPath40"><g
         id="g41"
         transform="matrix(0.70733866,0,0,-0.70733866,-347.39169,124.93369)"><path
           d="M -94.25,-146.625 H 958.125 V 597.5 H -94.25 Z"
           id="path40"
           style="stroke-width:1.25" /></g></clipPath><clipPath
       clipPathUnits="userSpaceOnUse"
       id="clipPath41"><g
         id="g42"
         transform="matrix(0.70733866,0,0,-0.70733866,-630.94607,165.07515)"><path
           d="M -94.25,-146.625 H 958.125 V 597.5 H -94.25 Z"
           id="path41"
           style="stroke-width:1.25" /></g></clipPath><clipPath
       clipPathUnits="userSpaceOnUse"
       id="clipPath42"><g
         id="g43"
         transform="matrix(0.70733866,0,0,-0.70733866,-552.96198,108.48806)"><path
           d="M -94.25,-146.625 H 958.125 V 597.5 H -94.25 Z"
           id="path42"
           style="stroke-width:1.25" /></g></clipPath><clipPath
       clipPathUnits="userSpaceOnUse"
       id="clipPath43"><g
         id="g44"
         transform="matrix(0.70733866,0,0,-0.70733866,-470.82228,109.28382)"><path
           d="M -94.25,-146.625 H 958.125 V 597.5 H -94.25 Z"
           id="path43"
           style="stroke-width:1.25" /></g></clipPath><clipPath
       clipPathUnits="userSpaceOnUse"
       id="clipPath44"><g
         id="g45"
         transform="matrix(0.70733866,0,0,-0.70733866,-403.18302,108.48806)"><path
           d="M -94.25,-146.625 H 958.125 V 597.5 H -94.25 Z"
           id="path44"
           style="stroke-width:1.25" /></g></clipPath></defs><g
     transform="matrix(1.41375,0,0,-1.41375,295.89441,202.41166)"
     style="fill:#000000;stroke-width:0.8841"
     id="g17"
     clip-path="url(#clipPath33)"><path
       d="m 0,0 c 0,0 -0.325,1.994 -0.515,1.976 l -36.18,-3.491 c -2.879,-0.278 -5.115,-2.574 -5.317,-5.459 l -0.994,-14.25 -27.99,-1.997 -1.904,12.91 c -0.424,2.872 -2.932,5.037 -5.835,5.037 h -38.19 c -2.902,0 -5.41,-2.165 -5.834,-5.037 l -1.905,-12.91 -27.99,1.997 -0.994,14.25 c -0.202,2.886 -2.438,5.182 -5.317,5.46 l -36.2,3.49 c -0.187,0.018 -0.324,-1.978 -0.511,-1.978 l -0.049,-7.83 30.66,-4.944 1.004,-14.37 c 0.203,-2.91 2.551,-5.263 5.463,-5.472 l 38.55,-2.75 c 0.146,-0.01 0.29,-0.016 0.434,-0.016 2.897,0 5.401,2.166 5.825,5.038 l 1.959,13.29 h 28 l 1.959,-13.29 c 0.423,-2.871 2.93,-5.037 5.831,-5.037 0.142,0 0.284,0.005 0.423,0.015 l 38.56,2.75 c 2.911,0.209 5.26,2.562 5.463,5.472 l 1.003,14.37 30.64,4.966 z"
       style="fill:#000000"
       id="path17" /></g><g
     transform="matrix(1.41375,0,0,-1.41375,19.269412,119.03666)"
     style="fill:#ffffff;stroke-width:0.8841"
     id="g18"
     clip-path="url(#clipPath32)"><path
       d="m 0,0 v -59.04 c 0.108,-10e-4 0.216,-0.005 0.323,-0.015 l 36.2,-3.49 c 1.896,-0.183 3.382,-1.709 3.514,-3.609 l 1.116,-15.98 31.57,-2.253 2.175,14.75 c 0.282,1.912 1.922,3.329 3.856,3.329 h 38.19 c 1.933,0 3.573,-1.417 3.855,-3.329 l 2.175,-14.75 31.58,2.253 1.115,15.98 c 0.133,1.9 1.618,3.425 3.514,3.609 l 36.18,3.49 c 0.107,0.01 0.214,0.014 0.322,0.015 v 4.711 l 0.015,0.005 v 54.32 h 0.134 c 4.795,6.12 9.232,12.57 13.49,19.45 -5.651,9.62 -12.58,18.22 -19.98,26.18 -6.864,-3.455 -13.53,-7.369 -19.83,-11.53 -3.151,3.132 -6.7,5.694 -10.19,8.372 -3.425,2.751 -7.285,4.768 -10.95,7.118 1.09,8.117 1.629,16.11 1.846,24.45 -9.446,4.754 -19.52,7.906 -29.71,10.17 -4.068,-6.837 -7.788,-14.24 -11.03,-21.48 -3.842,0.642 -7.702,0.88 -11.57,0.926 v 0.006 c -0.027,0 -0.052,-0.006 -0.075,-0.006 -0.024,0 -0.049,0.006 -0.073,0.006 v -0.006 c -3.872,-0.046 -7.729,-0.284 -11.57,-0.926 -3.238,7.238 -6.956,14.64 -11.03,21.48 -10.18,-2.264 -20.26,-5.416 -29.7,-10.17 0.216,-8.34 0.755,-16.33 1.848,-24.45 -3.668,-2.35 -7.523,-4.367 -10.95,-7.118 -3.481,-2.678 -7.036,-5.24 -10.19,-8.372 -6.297,4.165 -12.96,8.079 -19.83,11.53 -7.401,-7.965 -14.32,-16.56 -19.97,-26.18 4.253,-6.88 8.693,-13.33 13.49,-19.45 z"
       style="fill:#ffffff"
       id="path18" /></g><g
     transform="matrix(1.41375,0,0,-1.41375,250.01941,217.91166)"
     style="fill:#ffffff;stroke-width:0.8841"
     id="g19"
     clip-path="url(#clipPath31)"><path
       d="m 0,0 -1.121,-16.06 c -0.135,-1.936 -1.675,-3.477 -3.611,-3.616 l -38.56,-2.751 c -0.094,-0.007 -0.188,-0.01 -0.281,-0.01 -1.916,0 -3.569,1.406 -3.852,3.33 l -2.211,14.99 h -31.46 l -2.211,-14.99 c -0.297,-2.018 -2.101,-3.469 -4.133,-3.32 l -38.56,2.751 c -1.936,0.139 -3.476,1.68 -3.611,3.616 l -1.121,16.06 -32.55,3.138 c 0.015,-3.498 0.06,-7.33 0.06,-8.093 0,-34.37 43.6,-50.9 97.78,-51.09 h 0.133 c 54.18,0.19 97.77,16.71 97.77,51.09 0,0.777 0.047,4.593 0.063,8.093 z"
       style="fill:#ffffff"
       id="path19" /></g><g
     transform="matrix(1.41375,0,0,-1.41375,115.89441,152.91166)"
     style="fill:#000000;stroke-width:0.8841"
     id="g20"
     clip-path="url(#clipPath30)"><path
       d="m 0,0 c 0,-12.05 -9.765,-21.82 -21.81,-21.82 -12.04,0 -21.81,9.763 -21.81,21.82 0,12.04 9.768,21.8 21.81,21.8 C -9.76,21.8 0,12.042 0,0"
       style="fill:#000000"
       id="path20" /></g><g
     transform="matrix(1.41375,0,0,-1.41375,108.51941,154.66166)"
     style="fill:#ffffff;stroke-width:0.8841"
     id="g21"
     clip-path="url(#clipPath29)"><path
       d="m 0,0 c 0,-7.994 -6.479,-14.47 -14.48,-14.47 -7.996,0 -14.48,6.479 -14.48,14.47 0,7.991 6.483,14.48 14.48,14.48 C -6.48,14.48 0,7.995 0,0"
       style="fill:#ffffff"
       id="path21" /></g><g
     transform="matrix(1.41375,0,0,-1.41375,157.64441,186.53666)"
     style="fill:#000000;stroke-width:0.8841"
     id="g22"
     clip-path="url(#clipPath28)"><path
       d="m 0,0 c -3.878,0 -7.021,2.858 -7.021,6.381 v 20.08 c 0,3.52 3.143,6.381 7.021,6.381 3.878,0 7.028,-2.861 7.028,-6.381 V 6.381 C 7.028,2.858 3.878,0 0,0"
       style="fill:#000000"
       id="path22" /></g><g
     transform="matrix(1.41375,0,0,-1.41375,199.26941,152.91166)"
     style="fill:#000000;stroke-width:0.8841"
     id="g23"
     clip-path="url(#clipPath27)"><path
       d="m 0,0 c 0,-12.05 9.765,-21.82 21.82,-21.82 12.04,0 21.81,9.763 21.81,21.82 0,12.04 -9.767,21.8 -21.81,21.8 C 9.77,21.8 0,12.042 0,0"
       style="fill:#000000"
       id="path23" /></g><g
     transform="matrix(1.41375,0,0,-1.41375,206.76941,154.66166)"
     style="fill:#ffffff;stroke-width:0.8841"
     id="g24"
     clip-path="url(#clipPath26)"><path
       d="m 0,0 c 0,-7.994 6.477,-14.47 14.47,-14.47 8.002,0 14.48,6.479 14.48,14.47 0,7.991 -6.477,14.48 -14.48,14.48 C 6.476,14.48 0,7.995 0,0"
       style="fill:#ffffff"
       id="path24" /></g></svg>
