<?xml version="1.0" encoding="UTF-8" standalone="no"?>
<!-- Created with Inkscape (http://www.inkscape.org/) -->

<svg
   width="70mm"
   height="70mm"
   viewBox="0 0 69.999999 69.999999"
   version="1.1"
   id="svg1"
   xml:space="preserve"
   inkscape:version="1.3.2 (091e20ef0f, 2023-11-25)"
   sodipodi:docname="icon_square.svg"
   inkscape:export-filename="icon_square.png"
   inkscape:export-xdpi="200"
   inkscape:export-ydpi="200"
   xmlns:inkscape="http://www.inkscape.org/namespaces/inkscape"
   xmlns:sodipodi="http://sodipodi.sourceforge.net/DTD/sodipodi-0.dtd"
   xmlns="http://www.w3.org/2000/svg"
   xmlns:svg="http://www.w3.org/2000/svg"><sodipodi:namedview
     id="namedview1"
     pagecolor="#ffffff"
     bordercolor="#000000"
     borderopacity="0.25"
     inkscape:showpageshadow="2"
     inkscape:pageopacity="0.0"
     inkscape:pagecheckerboard="0"
     inkscape:deskcolor="#d1d1d1"
     inkscape:document-units="mm"
     inkscape:zoom="2"
     inkscape:cx="97.25"
     inkscape:cy="144"
     inkscape:window-width="1920"
     inkscape:window-height="1012"
     inkscape:window-x="0"
     inkscape:window-y="32"
     inkscape:window-maximized="1"
     inkscape:current-layer="svg1" /><defs
     id="defs1" /><rect
     style="fill:#2ba76f;fill-opacity:1;stroke:#2ba76f;stroke-width:12.1991;stroke-linecap:round;stroke-linejoin:round;stroke-dasharray:none;stroke-opacity:1"
     id="rect8"
     width="46.813675"
     height="46.813675"
     x="11.593163"
     y="11.593163"
     inkscape:label="Background" /><g
     inkscape:groupmode="layer"
     id="layer2"
     inkscape:label="Icon"
     transform="matrix(0.7974786,0.13111321,-0.13111321,0.7974786,-6.274667,-76.907324)"><g
       id="g9"
       inkscape:label="Letter"
       transform="matrix(1.0661487,0,0,1.0661487,-4.8510078,-8.6818734)"><path
         style="font-size:58.6053px;font-family:Copyduck;-inkscape-font-specification:Copyduck;display:inline;fill:#ffc268;fill-opacity:1;stroke-width:1.31372;stroke-linecap:round;stroke-linejoin:round"
         d="m 74.274682,151.89668 c 3.13644,-3.41676 3.16024,-6.62819 2.45668,-10.9801 2.61948,-0.8766 8.90237,-2.9057 12.46038,-9.06836 1.36853,-2.37037 1.98416,-5.22991 2.0196,-7.934 0.0549,-4.43659 -1.05984,-9.11253 -3.32566,-12.92728 -1.28374,-2.21242 -3.14765,-4.2694 -5.38446,-5.39734 -2.64549,-1.36389 -5.74561,-1.84598 -8.70755,-1.81234 -4.95231,0.0833 -9.94592,1.55953 -14.52623,3.54683 -2.651036,1.19399 -5.3918,2.82658 -7.018197,5.26603 -0.600833,0.85192 -0.857448,1.95705 -0.920677,3.01036 -0.0034,0.76093 0.735967,4.29379 0.861505,5.02016 0.91208,4.17749 2.275409,8.23408 3.638731,12.29065 0.975303,3.12418 1.950607,6.24836 2.796984,9.40708 0.708194,2.64301 2.731714,9.29761 4.960514,10.91136 3.37773,2.54953 8.13884,2.04465 10.68838,-1.33308 z"
         id="path55"
         sodipodi:nodetypes="ccscccccccccsccc"
         inkscape:label="Crust" /><path
         style="display:inline;fill:#ffffff;fill-opacity:1;stroke-width:1;stroke-linecap:round;stroke-linejoin:round"
         id="path56"
         d="m 57.819851,111.21857 c -6.794609,5.91991 -1.602712,15.00102 0.327664,21.80546 -0.02802,4.95178 8.287067,7.51401 4.897057,0.77319 -6.883028,-6.36435 -3.43738,10.46387 1.03525,4.74667 1.87235,-4.44869 -7.384501,-10.66027 -5.100729,-3.05701 1.131242,5.04156 7.617679,2.74797 3.660419,-1.48202 -3.580254,-6.66736 -6.338731,-14.7628 -2.294794,-21.69354 -0.285291,-1.06514 -1.576465,-1.40939 -2.524867,-1.09275 z"
         inkscape:label="Shine" /><path
         style="font-size:58.6053px;font-family:Copyduck;-inkscape-font-specification:Copyduck;display:inline;fill:#fd5c21;fill-opacity:1;stroke-width:1.15364;stroke-linecap:round;stroke-linejoin:round"
         d="m 73.704222,149.66434 c 1.02897,-1.36781 1.45339,-3.18037 1.48154,-4.88675 0.0807,-1.96315 -0.26519,-3.93334 -0.61109,-5.90353 1.71749,-0.15683 3.41575,-0.61188 4.98154,-1.3348 2.90518,-1.38516 5.55249,-3.73267 7.16866,-6.53195 1.20177,-2.08152 1.74237,-4.59261 1.7735,-6.96719 0.0482,-3.89597 -0.93069,-8.00211 -2.92041,-11.35201 -1.1273,-1.94283 -2.76409,-3.74915 -4.72833,-4.73964 -2.32312,-1.1977 -5.04547,-1.62103 -7.64648,-1.5915 -4.34884,0.0732 -8.73395,1.36949 -12.756121,3.11463 -2.327985,1.04849 -4.73478,2.48214 -6.162984,4.62433 -0.527617,0.74811 -0.752964,1.71857 -0.808484,2.64353 -0.003,0.6682 0.646283,3.77056 0.756524,4.40842 0.800938,3.66845 1.998139,7.23071 3.195329,10.79296 0.856457,2.74348 1.712914,5.48695 2.456154,8.26076 0.621892,2.32095 2.261142,9.34445 4.218342,10.76155 2.96614,2.23886 7.36345,1.66733 9.60231,-1.29881 z M 56.428125,113.94613 c -0.08803,-1.00784 1.066339,-1.68119 1.844783,-1.04036 0.7481,0.52763 0.624865,1.65275 -0.122143,2.03493 -0.788454,0.45396 -1.664937,-0.0999 -1.72264,-0.99457 z m 4.172917,23.27229 c -0.189056,-0.25271 -0.711812,-1.7508 -0.787654,-2.03384 -0.32557,-0.76218 -1.878672,-5.19984 -2.147636,-5.97719 -0.450986,-1.45665 -2.347006,-8.5327 -2.443164,-10.02375 -0.03439,-0.35481 -0.213445,-1.70232 -0.1609,-1.95909 0.300097,-1.59722 2.693906,-1.26787 2.393812,0.32935 -0.09399,0.32855 0.08506,1.67605 0.17607,2.0157 0.148702,1.23428 1.964823,7.78568 2.298521,9.03106 0.359968,1.117 2.227541,6.50183 2.757341,7.57333 0.8058,1.42225 -1.29575,2.41007 -2.08639,1.04443 z m 12.07653,-6.3302 c -0.39844,-1.71342 -2.89008,-11.2388 -3.45834,-12.90672 -0.19312,-0.49431 -0.3448,-1.06039 -0.38327,-1.6568 0.0281,-1.70638 1.87293,-2.74674 3.40651,-2.00489 2.65167,1.29169 4.52737,7.15973 4.81774,10.05488 0.0962,1.49106 0.0528,3.14083 -0.69309,4.4328 -0.77625,1.17877 -2.31172,2.01491 -3.68956,2.08073 z"
         id="text1"
         inkscape:label="Sauce" /><g
         id="g15"
         inkscape:label="Drips"
         transform="rotate(-15,100.98779,-24.069808)"
         style="display:inline"><path
           style="opacity:1;fill:#ffc268;fill-opacity:1;stroke-width:1;stroke-linecap:round;stroke-linejoin:round"
           d="m 19.377292,137.91499 c 0.702319,1.04442 0.878083,2.73811 1.004058,3.71697 0.125975,0.97886 0.315381,1.63534 0.451099,2.29012 0.135718,0.65478 0.181637,1.0016 0.287617,1.6895 0.10598,0.6879 0.162694,1.59497 0.260068,2.44226 0.09737,0.84729 0.140544,1.98659 0.04652,2.68206 -0.09402,0.69547 -0.01958,0.94275 0.03316,1.50699 0.05274,0.56424 0.108968,1.30587 0.334203,1.9438 0.225235,0.63793 1.043249,1.20807 1.518621,0.59325 0.475372,-0.61482 0.44697,-0.85739 0.335332,-1.5028 -0.111638,-0.64541 -0.655335,-1.24706 -0.692289,-1.79763 -0.03695,-0.55057 0.14973,-0.6581 0.294458,-0.22891 0.144728,0.42919 0.272237,1.05062 0.921542,0.61209 0.649305,-0.43853 0.830307,-1.45067 0.664722,-2.11789 -0.165585,-0.66722 -0.353392,-1.12374 -0.497839,-1.80503 -0.144447,-0.68129 -0.270411,-1.45108 -0.420975,-2.24349 -0.150564,-0.79241 -0.126682,-1.14032 -0.276162,-1.89456 -0.14948,-0.75424 0.552624,-1.52218 0.922303,-0.7807 0.369679,0.74148 0.380595,1.11806 0.572203,1.82353 0.191608,0.70547 0.381745,1.70169 0.341537,2.48123 -0.04021,0.77954 -0.0084,1.47095 -0.04677,2.14387 -0.03835,0.67292 0.297651,1.79194 1.083056,1.43236 0.785405,-0.35958 0.767325,-0.93175 0.748711,-1.63282 -0.01861,-0.70107 -0.218646,-1.26296 -0.457924,-2.10969 -0.239278,-0.84673 -0.719097,-2.12249 -1.007169,-2.93939 -0.288072,-0.8169 -0.412963,-1.82161 0.277951,-2.07776 0.690914,-0.25615 1.171189,0.61151 1.272357,1.23807 0.101168,0.62656 0.08585,1.42452 0.578865,1.82829 0.493013,0.40377 1.347705,0.15277 1.795121,-0.37127 0.447416,-0.52404 0.22918,-1.66785 -0.212763,-2.30282 -0.441943,-0.63497 -0.427142,-1.45504 -0.07741,-2.10415 0.349732,-0.64911 0.675456,-1.56683 1.183666,-2.16765"
           id="path4"
           sodipodi:nodetypes="czzzzzzzzzzzzzzzzzzzzzzzzzzzzzzc" /><path
           style="opacity:1;fill:#ffc268;fill-opacity:1;stroke-width:1;stroke-linecap:round;stroke-linejoin:round"
           d="m 28.281188,149.82094 c -0.443113,-0.0698 -0.577812,0.28346 -0.651939,0.6587 -0.07413,0.37524 0.159835,1.10848 0.520367,1.26533 0.360532,0.15685 0.760669,0.0789 0.927388,-0.349 0.166719,-0.42793 -0.352703,-1.50525 -0.795816,-1.57503 z"
           id="path7"
           sodipodi:nodetypes="zzzzz" /></g></g></g></svg>
